<mxfile host="app.diagrams.net" agent="Mozilla/5.0 (Windows NT 10.0; Win64; x64) AppleWebKit/537.36 (KHTML, like Gecko) Chrome/128.0.0.0 Safari/537.36" version="24.7.8">
  <diagram name="Página-1" id="nps_ZNpOyqi2shIpT-CB">
    <mxGraphModel dx="1257" dy="1838" grid="1" gridSize="10" guides="1" tooltips="1" connect="1" arrows="1" fold="1" page="1" pageScale="1" pageWidth="827" pageHeight="1169" math="0" shadow="0">
      <root>
        <mxCell id="0" />
        <mxCell id="1" parent="0" />
        <mxCell id="bBsQcBd4owB1lRNrMBnq-1" value="" style="rounded=0;whiteSpace=wrap;html=1;" vertex="1" parent="1">
          <mxGeometry x="10" y="-120" width="720" height="540" as="geometry" />
        </mxCell>
        <mxCell id="bBsQcBd4owB1lRNrMBnq-2" value="" style="rounded=0;whiteSpace=wrap;html=1;" vertex="1" parent="1">
          <mxGeometry x="10" y="-120" width="720" height="160" as="geometry" />
        </mxCell>
        <mxCell id="bBsQcBd4owB1lRNrMBnq-3" value="" style="ellipse;whiteSpace=wrap;html=1;aspect=fixed;" vertex="1" parent="1">
          <mxGeometry x="120" y="-110" width="140" height="140" as="geometry" />
        </mxCell>
        <mxCell id="bBsQcBd4owB1lRNrMBnq-4" value="Otávio Lube dos Santos" style="text;html=1;align=center;verticalAlign=middle;whiteSpace=wrap;rounded=0;fontSize=23;" vertex="1" parent="1">
          <mxGeometry x="320" y="-55" width="256" height="30" as="geometry" />
        </mxCell>
        <mxCell id="bBsQcBd4owB1lRNrMBnq-6" value="" style="shape=image;html=1;verticalAlign=top;verticalLabelPosition=bottom;labelBackgroundColor=#ffffff;imageAspect=0;aspect=fixed;image=https://cdn4.iconfinder.com/data/icons/ionicons/512/icon-social-github-128.png" vertex="1" parent="1">
          <mxGeometry x="660" y="2.2" width="28" height="28" as="geometry" />
        </mxCell>
        <mxCell id="bBsQcBd4owB1lRNrMBnq-7" value="" style="dashed=0;outlineConnect=0;html=1;align=center;labelPosition=center;verticalLabelPosition=bottom;verticalAlign=top;shape=mxgraph.webicons.instagram;gradientColor=#DFDEDE" vertex="1" parent="1">
          <mxGeometry x="690" y="1.1546319456101628e-14" width="32.4" height="32.4" as="geometry" />
        </mxCell>
        <mxCell id="bBsQcBd4owB1lRNrMBnq-8" value="" style="dashed=0;outlineConnect=0;html=1;align=center;labelPosition=center;verticalLabelPosition=bottom;verticalAlign=top;shape=mxgraph.webicons.linkedin;fillColor=#0095DB;gradientColor=#006391" vertex="1" parent="1">
          <mxGeometry x="620" y="0.20000000000000018" width="34.8" height="30" as="geometry" />
        </mxCell>
        <mxCell id="bBsQcBd4owB1lRNrMBnq-9" value="" style="rounded=0;whiteSpace=wrap;html=1;" vertex="1" parent="1">
          <mxGeometry x="10" y="40" width="680" height="40" as="geometry" />
        </mxCell>
        <mxCell id="bBsQcBd4owB1lRNrMBnq-10" value="ABOUT" style="rounded=0;whiteSpace=wrap;html=1;" vertex="1" parent="1">
          <mxGeometry x="10" y="40" width="180" height="40" as="geometry" />
        </mxCell>
        <mxCell id="bBsQcBd4owB1lRNrMBnq-11" value="PORTFÓLIO" style="rounded=0;whiteSpace=wrap;html=1;" vertex="1" parent="1">
          <mxGeometry x="190" y="40" width="180" height="40" as="geometry" />
        </mxCell>
        <mxCell id="bBsQcBd4owB1lRNrMBnq-12" value="SERVIÇOS" style="rounded=0;whiteSpace=wrap;html=1;" vertex="1" parent="1">
          <mxGeometry x="370" y="40" width="180" height="40" as="geometry" />
        </mxCell>
        <mxCell id="bBsQcBd4owB1lRNrMBnq-13" value="CONTATOS" style="rounded=0;whiteSpace=wrap;html=1;" vertex="1" parent="1">
          <mxGeometry x="550" y="40" width="180" height="40" as="geometry" />
        </mxCell>
        <mxCell id="bBsQcBd4owB1lRNrMBnq-14" value="" style="rounded=0;whiteSpace=wrap;html=1;" vertex="1" parent="1">
          <mxGeometry x="70" y="100" width="310" height="230" as="geometry" />
        </mxCell>
        <mxCell id="bBsQcBd4owB1lRNrMBnq-15" value="&lt;h1 style=&quot;margin-top: 0px;&quot;&gt;Heading&lt;/h1&gt;&lt;p&gt;Na imagem, Otávio Lube, especialista em Segurança da Informação, está sendo entrevistado ao vivo em um estúdio de televisão. Vestindo um elegante blazer azul, Otávio explica medidas de segurança para proteger cartões de aproximação, destacando a importância da conscientização sobre segurança digital. Ele segura um dispositivo de leitura de cartões enquanto fala com o repórter, que o ouve atentamente, ilustrando um momento de troca de conhecimentos ao vivo. A atmosfera no estúdio é profissional, com iluminação clara e ambiente bem organizado ao fundo.&lt;/p&gt;" style="text;html=1;whiteSpace=wrap;overflow=hidden;rounded=0;" vertex="1" parent="1">
          <mxGeometry x="414" y="100" width="276" height="220" as="geometry" />
        </mxCell>
        <mxCell id="bBsQcBd4owB1lRNrMBnq-16" value="Desenvolvido com ❤ por @prof.otaviolube" style="rounded=0;whiteSpace=wrap;html=1;" vertex="1" parent="1">
          <mxGeometry x="10" y="380" width="720" height="40" as="geometry" />
        </mxCell>
        <mxCell id="bBsQcBd4owB1lRNrMBnq-17" value="" style="rounded=0;whiteSpace=wrap;html=1;" vertex="1" parent="1">
          <mxGeometry x="840" y="-120" width="250" height="430" as="geometry" />
        </mxCell>
        <mxCell id="bBsQcBd4owB1lRNrMBnq-18" value="" style="ellipse;whiteSpace=wrap;html=1;aspect=fixed;" vertex="1" parent="1">
          <mxGeometry x="921.2" y="-107.6" width="87.6" height="87.6" as="geometry" />
        </mxCell>
        <mxCell id="bBsQcBd4owB1lRNrMBnq-19" value="Otávio Lube dos Santos" style="text;html=1;align=center;verticalAlign=middle;whiteSpace=wrap;rounded=0;fontSize=14;" vertex="1" parent="1">
          <mxGeometry x="880" width="170" height="17.6" as="geometry" />
        </mxCell>
        <mxCell id="bBsQcBd4owB1lRNrMBnq-21" value="" style="shape=image;verticalLabelPosition=bottom;labelBackgroundColor=default;verticalAlign=top;aspect=fixed;imageAspect=0;image=https://upload.wikimedia.org/wikipedia/commons/thumb/b/b2/Hamburger_icon.svg/800px-Hamburger_icon.svg.png;" vertex="1" parent="1">
          <mxGeometry x="1050" y="-100" width="27" height="27" as="geometry" />
        </mxCell>
        <mxCell id="bBsQcBd4owB1lRNrMBnq-22" value="" style="rounded=0;whiteSpace=wrap;html=1;" vertex="1" parent="1">
          <mxGeometry x="875" y="30" width="180" height="147.6" as="geometry" />
        </mxCell>
        <mxCell id="bBsQcBd4owB1lRNrMBnq-23" value="&lt;h1 style=&quot;margin-top: 0px;&quot;&gt;Heading&lt;/h1&gt;&lt;p&gt;Na imagem, Otávio Lube, especialista em Segurança da Informação, está sendo entrevistado ao vivo em um estúdio de televisão. Vestindo um elegante blazer azul, Otávio explica medidas de segurança para proteger cartões de aproximação, destacando a importância da conscientização sobre segurança digital. Ele segura um dispositivo de leitura de cartões enquanto fala com o repórter, que o ouve atentamente, ilustrando um momento de troca de conhecimentos ao vivo. A atmosfera no estúdio é profissional, com iluminação clara e ambiente bem organizado ao fundo.&lt;/p&gt;" style="text;html=1;whiteSpace=wrap;overflow=hidden;rounded=0;" vertex="1" parent="1">
          <mxGeometry x="880" y="200" width="170" height="80" as="geometry" />
        </mxCell>
        <mxCell id="bBsQcBd4owB1lRNrMBnq-24" value="" style="dashed=0;outlineConnect=0;html=1;align=center;labelPosition=center;verticalLabelPosition=bottom;verticalAlign=top;shape=mxgraph.webicons.linkedin;fillColor=#0095DB;gradientColor=#006391" vertex="1" parent="1">
          <mxGeometry x="850" y="-110" width="34.8" height="30" as="geometry" />
        </mxCell>
        <mxCell id="bBsQcBd4owB1lRNrMBnq-25" value="" style="shape=image;html=1;verticalAlign=top;verticalLabelPosition=bottom;labelBackgroundColor=#ffffff;imageAspect=0;aspect=fixed;image=https://cdn4.iconfinder.com/data/icons/ionicons/512/icon-social-github-128.png" vertex="1" parent="1">
          <mxGeometry x="853.4" y="-70" width="28" height="28" as="geometry" />
        </mxCell>
        <mxCell id="bBsQcBd4owB1lRNrMBnq-26" value="" style="dashed=0;outlineConnect=0;html=1;align=center;labelPosition=center;verticalLabelPosition=bottom;verticalAlign=top;shape=mxgraph.webicons.instagram;gradientColor=#DFDEDE" vertex="1" parent="1">
          <mxGeometry x="851.2" y="-31.99999999999999" width="32.4" height="32.4" as="geometry" />
        </mxCell>
      </root>
    </mxGraphModel>
  </diagram>
</mxfile>
